<!DOCTYPE svg PUBLIC "-//W3C//DTD SVG 1.1//EN" "http://www.w3.org/Graphics/SVG/1.1/DTD/svg11.dtd">
<!-- Uploaded to: SVG Repo, www.svgrepo.com, Transformed by: SVG Repo Mixer Tools -->
<svg fill="#8ea0c8" xmlns="http://www.w3.org/2000/svg" width="800px" height="800px" viewBox="0 0 100 100" enable-background="new 0 0 100 100" xml:space="preserve" stroke="#8ea0c8" stroke-width="2">
<g id="SVGRepo_bgCarrier" stroke-width="0"/>
<g id="SVGRepo_tracerCarrier" stroke-linecap="round" stroke-linejoin="round"/>
<g id="SVGRepo_iconCarrier"> <path d="M19,73.9c0,2.8,2.2,5,5,5h53c1.1,0,2-0.9,2-2v-2.1c0-1.1-0.9-2-2-2H26.9c-1,0-1.9-0.9-1.9-1.9V20.9 c0-1.1-0.9-2-2-2H21c-1.1,0-2,0.9-2,2V73.9z"/> <path d="M34.4,57.9c-0.8,0-1.5-0.3-2.1-0.9c-1.2-1.2-1.2-3.1,0-4.2l16-15.9c1.2-1.2,3.1-1.2,4.2,0l7.7,7.7l13.5-13.7 c1.2-1.2,3.1-1.2,4.2,0c1.2,1.2,1.2,3.1,0,4.2L62.4,50.8c-0.6,0.6-1.3,0.9-2.1,0.9h0c-0.8,0-1.6-0.3-2.1-0.9l-7.8-7.7L36.6,57 C36,57.6,35.2,57.9,34.4,57.9z"/> </g>
</svg>