<!DOCTYPE svg PUBLIC "-//W3C//DTD SVG 1.1//EN" "http://www.w3.org/Graphics/SVG/1.1/DTD/svg11.dtd">
<!-- Uploaded to: SVG Repo, www.svgrepo.com, Transformed by: SVG Repo Mixer Tools -->
<svg width="800px" height="800px" viewBox="0 0 24 24" fill="none" xmlns="http://www.w3.org/2000/svg" stroke="#ffffff">
<g id="SVGRepo_bgCarrier" stroke-width="0"/>
<g id="SVGRepo_tracerCarrier" stroke-linecap="round" stroke-linejoin="round"/>
<g id="SVGRepo_iconCarrier"> <path d="M9 13H15" stroke="#ffffff" stroke-width="1.2" stroke-linecap="round"/> <path d="M9 9H15" stroke="#ffffff" stroke-width="1.2" stroke-linecap="round"/> <path d="M9 17H12" stroke="#ffffff" stroke-width="1.2" stroke-linecap="round"/> <path d="M2 19V5" stroke="#ffffff" stroke-width="1.2" stroke-linecap="round"/> <path d="M22 19V5" stroke="#ffffff" stroke-width="1.2" stroke-linecap="round"/> <path d="M19 16C19 18.8284 19 20.2426 18.1213 21.1213C17.2426 22 15.8284 22 13 22H11C8.17157 22 6.75736 22 5.87868 21.1213C5 20.2426 5 18.8284 5 16V12M5 8C5 5.17157 5 3.75736 5.87868 2.87868C6.75736 2 8.17157 2 11 2H13C15.8284 2 17.2426 2 18.1213 2.87868C19 3.75736 19 5.17157 19 8V12" stroke="#ffffff" stroke-width="1.2" stroke-linecap="round"/> </g>
</svg>